<?xml version="1.0"?>
<!-- Generated by SVGo -->
<svg width="490" height="300"
     xmlns="http://www.w3.org/2000/svg"
     xmlns:xlink="http://www.w3.org/1999/xlink">
<rect x="10" y="13" width="50" height="237" style="fill:rgb(77, 200, 232)" />
<text x="10" y="276" style="font-size:14pt; fill:rgb(150, 150, 150); text-anchor: middle" >Jan</text>
<rect x="70" y="0" width="50" height="250" style="fill:rgb(77, 200, 232)" />
<text x="70" y="276" style="font-size:14pt; fill:rgb(150, 150, 150); text-anchor: middle" >Feb</text>
<rect x="130" y="112" width="50" height="138" style="fill:rgb(77, 200, 232)" />
<text x="130" y="276" style="font-size:14pt; fill:rgb(150, 150, 150); text-anchor: middle" >Mar</text>
<rect x="190" y="130" width="50" height="120" style="fill:rgb(77, 200, 232)" />
<text x="190" y="276" style="font-size:14pt; fill:rgb(150, 150, 150); text-anchor: middle" >Apr</text>
<rect x="250" y="159" width="50" height="91" style="fill:rgb(77, 200, 232)" />
<text x="250" y="276" style="font-size:14pt; fill:rgb(150, 150, 150); text-anchor: middle" >May</text>
<rect x="310" y="195" width="50" height="55" style="fill:rgb(77, 200, 232)" />
<text x="310" y="276" style="font-size:14pt; fill:rgb(150, 150, 150); text-anchor: middle" >Jun</text>
<rect x="370" y="206" width="50" height="44" style="fill:rgb(77, 200, 232)" />
<text x="370" y="276" style="font-size:14pt; fill:rgb(150, 150, 150); text-anchor: middle" >Jul</text>
<rect x="430" y="174" width="50" height="76" style="fill:rgb(77, 200, 232)" />
<text x="430" y="276" style="font-size:14pt; fill:rgb(150, 150, 150); text-anchor: middle" >Aug</text>
<line x1="0" y1="134" x2="490" y2="134" style="stroke: rgb(255, 100, 100); opacity: 0.8; stroke-width: 2px" />
<rect x="0" y="0" width="490" height="134" style="fill: rgb(255, 100, 100); opacity: 0.3" />
<line x1="0" y1="250" x2="490" y2="250" style="stroke: rgb(150, 150, 150); stroke-width:2;" />
</svg>
